<svg xmlns="http://www.w3.org/2000/svg" shape-rendering="geometricPrecision" text-rendering="geometricPrecision" image-rendering="optimizeQuality" fill-rule="evenodd" clip-rule="evenodd" viewBox="0 0 450 512.392">
	<path fill="#1C1D23" fill-rule="nonzero" d="M56.496.002h337.008C424.598.002 450 25.403 450 56.498v399.4c0 31.094-25.402 56.496-56.496 56.496H56.496C25.402 512.394 0 486.992 0 455.898v-399.4C0 25.403 25.402.002 56.496.002z"/>
	<path fill="#FDFDFD" d="M56.496 10.957h337.008c25.048 0 45.541 20.493 45.541 45.541v399.4c0 25.048-20.493 45.541-45.541 45.541H56.496c-25.048 0-45.541-20.493-45.541-45.541v-399.4c0-25.048 20.493-45.541 45.541-45.541z"/>
	<path fill="#FAEED4" d="M432.803 33.562a45.157 45.157 0 016.242 22.936v399.4c0 25.048-20.493 45.541-45.541 45.541H56.496a45.133 45.133 0 01-21.869-5.634 45.151 45.151 0 01-6.243-22.937V73.47c0-25.049 20.494-45.542 45.542-45.542h337.007a45.148 45.148 0 0121.87 5.634z"/>
	<path fill="#262A2D" fill-rule="nonzero" d="M92.715 80.963h35.673c3.317 0 6.336 1.36 8.526 3.549l.024.024c2.189 2.19 3.55 5.21 3.55 8.527v34.961c0 3.317-1.361 6.336-3.55 8.526l-.024.024c-2.19 2.189-5.209 3.55-8.526 3.55H92.715a12.072 12.072 0 01-8.551-3.55 12.066 12.066 0 01-3.549-8.55V93.063c0-3.317 1.361-6.337 3.549-8.527l.025-.024c2.19-2.189 5.208-3.549 8.526-3.549zm0 291.309h35.673c3.317 0 6.336 1.361 8.526 3.55l.024.024c2.189 2.19 3.55 5.21 3.55 8.527v34.961a12.07 12.07 0 01-3.55 8.55 12.066 12.066 0 01-8.55 3.549H92.715c-3.305 0-6.324-1.358-8.526-3.549l-.038-.038c-2.183-2.201-3.536-5.214-3.536-8.512v-34.961c0-3.317 1.361-6.337 3.549-8.527l.025-.024c2.19-2.189 5.208-3.55 8.526-3.55zm35.566 12.207H92.822v34.748h35.459v-34.748zm44.229 27.402a6.104 6.104 0 110-12.207h188.774a6.104 6.104 0 010 12.207H172.51zm0-197.249a6.104 6.104 0 010-12.207h188.774a6.103 6.103 0 110 12.207H172.51zm0-98.625a6.103 6.103 0 110-12.207h188.774a6.104 6.104 0 010 12.207H172.51zm0 197.249a6.104 6.104 0 110-12.207h188.774a6.104 6.104 0 010 12.207H172.51zm-79.795-38.087h35.673c3.317 0 6.336 1.361 8.526 3.55l.024.024c2.189 2.19 3.55 5.209 3.55 8.526v34.961a12.07 12.07 0 01-3.55 8.551 12.066 12.066 0 01-8.55 3.549H92.715c-3.305 0-6.324-1.358-8.526-3.549l-.038-.039c-2.183-2.2-3.536-5.213-3.536-8.512v-34.961c0-3.334 1.359-6.36 3.549-8.55a12.072 12.072 0 018.551-3.55zm35.566 12.207H92.822v34.747h35.459v-34.747zm-35.566-109.31h35.673c3.333 0 6.36 1.359 8.55 3.55a12.068 12.068 0 013.55 8.55v34.961c0 3.317-1.361 6.336-3.55 8.526l-.024.025c-2.19 2.189-5.209 3.549-8.526 3.549H92.715c-3.334 0-6.361-1.36-8.551-3.549a12.067 12.067 0 01-3.549-8.551v-34.961c0-3.305 1.359-6.324 3.549-8.526l.039-.038c2.2-2.183 5.213-3.536 8.512-3.536zm35.566 12.207H92.822v34.747h35.459v-34.747zm0-97.104H92.822v34.748h35.459V93.169z"/>
</svg>